<svg width="483" height="140" viewBox="0 0 483 140" fill="none" xmlns="http://www.w3.org/2000/svg">
<path d="M48.09 114V111.9C50.33 111.76 52.01 111.48 53.13 111.06C54.25 110.64 54.985 109.8 55.335 108.54C55.755 107.28 55.965 105.39 55.965 102.87V50.79C55.965 48.2 55.755 46.31 55.335 45.12C54.985 43.86 54.215 43.02 53.025 42.6C51.905 42.11 50.26 41.83 48.09 41.76V39.66C49.98 39.73 52.43 39.8 55.44 39.87C58.52 39.94 61.565 39.975 64.575 39.975C67.795 39.975 70.805 39.94 73.605 39.87C76.475 39.8 78.785 39.73 80.535 39.66V41.76C78.295 41.83 76.58 42.11 75.39 42.6C74.27 43.02 73.535 43.86 73.185 45.12C72.835 46.31 72.66 48.2 72.66 50.79V102.87C72.66 105.39 72.835 107.28 73.185 108.54C73.605 109.8 74.375 110.64 75.495 111.06C76.615 111.48 78.295 111.76 80.535 111.9V114C78.785 113.86 76.475 113.79 73.605 113.79C70.805 113.72 67.795 113.685 64.575 113.685C61.565 113.685 58.52 113.72 55.44 113.79C52.43 113.79 49.98 113.86 48.09 114ZM3.57 114V111.9C5.81 111.76 7.49 111.48 8.61 111.06C9.73 110.64 10.465 109.8 10.815 108.54C11.235 107.28 11.445 105.39 11.445 102.87V50.79C11.445 48.2 11.235 46.31 10.815 45.12C10.465 43.86 9.695 43.02 8.505 42.6C7.385 42.11 5.74 41.83 3.57 41.76V39.66C5.39 39.73 7.735 39.8 10.605 39.87C13.545 39.94 16.73 39.975 20.16 39.975C23.1 39.975 26.005 39.94 28.875 39.87C31.745 39.8 34.125 39.73 36.015 39.66V41.76C33.775 41.83 32.06 42.11 30.87 42.6C29.75 43.02 29.015 43.86 28.665 45.12C28.315 46.31 28.14 48.2 28.14 50.79V102.87C28.14 105.39 28.315 107.28 28.665 108.54C29.085 109.8 29.855 110.64 30.975 111.06C32.095 111.48 33.775 111.76 36.015 111.9V114C34.125 113.86 31.745 113.79 28.875 113.79C26.005 113.72 23.1 113.685 20.16 113.685C16.73 113.685 13.545 113.72 10.605 113.79C7.735 113.79 5.39 113.86 3.57 114ZM21.315 77.67V75.57H62.79V77.67H21.315ZM111.641 58.245C117.801 58.245 122.631 60.065 126.131 63.705C129.631 67.345 131.381 73.295 131.381 81.555H96.8363L96.6263 79.56H118.151C118.221 76.13 118.011 72.98 117.521 70.11C117.031 67.17 116.261 64.825 115.211 63.075C114.161 61.325 112.761 60.45 111.011 60.45C108.561 60.45 106.461 61.99 104.711 65.07C103.031 68.15 102.016 73.26 101.666 80.4L101.981 81.03C101.911 81.87 101.841 82.745 101.771 83.655C101.771 84.565 101.771 85.51 101.771 86.49C101.771 91.32 102.436 95.24 103.766 98.25C105.166 101.26 106.916 103.465 109.016 104.865C111.116 106.195 113.251 106.86 115.421 106.86C116.891 106.86 118.396 106.65 119.936 106.23C121.546 105.74 123.156 104.9 124.766 103.71C126.376 102.45 127.881 100.7 129.281 98.46L131.171 99.09C130.331 101.75 129.001 104.34 127.181 106.86C125.361 109.38 123.051 111.445 120.251 113.055C117.451 114.665 114.091 115.47 110.171 115.47C105.411 115.47 101.211 114.455 97.5713 112.425C93.9313 110.395 91.0613 107.315 88.9612 103.185C86.9313 99.055 85.9163 93.805 85.9163 87.435C85.9163 80.925 87.0013 75.5 89.1713 71.16C91.4113 66.82 94.4563 63.6 98.3063 61.5C102.226 59.33 106.671 58.245 111.641 58.245ZM151.951 114.735C148.801 114.735 146.176 114.14 144.076 112.95C141.976 111.76 140.436 110.185 139.456 108.225C138.476 106.195 137.986 103.99 137.986 101.61C137.986 98.6 138.651 96.15 139.981 94.26C141.381 92.37 143.166 90.83 145.336 89.64C147.506 88.45 149.781 87.47 152.161 86.7C154.611 85.93 156.921 85.195 159.091 84.495C161.331 83.725 163.116 82.85 164.446 81.87C165.846 80.82 166.546 79.49 166.546 77.88V69.69C166.546 67.87 166.231 66.26 165.601 64.86C165.041 63.39 164.131 62.27 162.871 61.5C161.681 60.73 160.106 60.345 158.146 60.345C156.746 60.345 155.346 60.555 153.946 60.975C152.546 61.325 151.391 61.955 150.481 62.865C152.441 63.565 153.946 64.65 154.996 66.12C156.116 67.52 156.676 69.13 156.676 70.95C156.676 73.33 155.836 75.22 154.156 76.62C152.546 78.02 150.621 78.72 148.381 78.72C145.861 78.72 143.936 77.95 142.606 76.41C141.346 74.8 140.716 72.875 140.716 70.635C140.716 68.605 141.206 66.925 142.186 65.595C143.236 64.265 144.671 63.005 146.491 61.815C148.451 60.695 150.796 59.82 153.526 59.19C156.326 58.56 159.336 58.245 162.556 58.245C165.776 58.245 168.681 58.595 171.271 59.295C173.861 59.925 176.031 61.115 177.781 62.865C179.391 64.475 180.441 66.47 180.931 68.85C181.421 71.16 181.666 74.1 181.666 77.67V106.23C181.666 107.98 181.841 109.205 182.191 109.905C182.541 110.535 183.136 110.85 183.976 110.85C184.606 110.85 185.201 110.675 185.761 110.325C186.391 109.975 187.056 109.555 187.756 109.065L188.806 110.85C187.336 112.11 185.621 113.09 183.661 113.79C181.771 114.42 179.636 114.735 177.256 114.735C174.666 114.735 172.601 114.385 171.061 113.685C169.521 112.915 168.401 111.9 167.701 110.64C167.071 109.38 166.756 107.91 166.756 106.23C165.076 108.89 163.046 110.99 160.666 112.53C158.286 114 155.381 114.735 151.951 114.735ZM159.406 108.015C160.806 108.015 162.066 107.7 163.186 107.07C164.376 106.37 165.496 105.25 166.546 103.71V82.185C165.916 83.235 165.041 84.18 163.921 85.02C162.801 85.86 161.611 86.735 160.351 87.645C159.091 88.485 157.866 89.43 156.676 90.48C155.556 91.53 154.646 92.825 153.946 94.365C153.246 95.905 152.896 97.76 152.896 99.93C152.896 102.66 153.491 104.69 154.681 106.02C155.871 107.35 157.446 108.015 159.406 108.015ZM227.927 58.245C230.167 58.245 231.987 58.735 233.387 59.715C234.787 60.625 235.802 61.815 236.432 63.285C237.132 64.755 237.482 66.295 237.482 67.905C237.482 70.495 236.712 72.63 235.172 74.31C233.702 75.92 231.742 76.725 229.292 76.725C226.842 76.725 224.917 76.13 223.517 74.94C222.187 73.68 221.522 72.035 221.522 70.005C221.522 68.045 221.942 66.435 222.782 65.175C223.692 63.845 224.812 62.725 226.142 61.815C225.162 61.535 224.182 61.57 223.202 61.92C221.872 62.13 220.612 62.69 219.422 63.6C218.232 64.44 217.217 65.525 216.377 66.855C215.537 68.115 214.872 69.515 214.382 71.055C213.892 72.525 213.647 73.96 213.647 75.36V103.185C213.647 106.545 214.452 108.82 216.062 110.01C217.742 111.2 220.227 111.795 223.517 111.795V114C221.907 113.93 219.562 113.86 216.482 113.79C213.402 113.65 210.182 113.58 206.822 113.58C204.022 113.58 201.187 113.65 198.317 113.79C195.447 113.86 193.277 113.93 191.807 114V111.795C194.257 111.795 195.972 111.27 196.952 110.22C198.002 109.17 198.527 107.175 198.527 104.235V71.16C198.527 68.01 198.037 65.7 197.057 64.23C196.147 62.69 194.397 61.92 191.807 61.92V59.715C194.047 59.925 196.217 60.03 198.317 60.03C201.257 60.03 203.987 59.925 206.507 59.715C209.097 59.435 211.477 59.05 213.647 58.56V68.325C214.487 66.435 215.607 64.72 217.007 63.18C218.407 61.64 220.017 60.45 221.837 59.61C223.657 58.7 225.687 58.245 227.927 58.245ZM262.136 42.495V59.715H274.526V61.815H262.136V104.235C262.136 106.335 262.521 107.84 263.291 108.75C264.061 109.59 265.216 110.01 266.756 110.01C268.016 110.01 269.276 109.555 270.536 108.645C271.796 107.665 272.916 106.02 273.896 103.71L275.681 104.655C274.561 107.805 272.846 110.395 270.536 112.425C268.296 114.455 265.216 115.47 261.296 115.47C258.986 115.47 256.956 115.155 255.206 114.525C253.456 113.965 251.986 113.09 250.796 111.9C249.256 110.36 248.241 108.47 247.751 106.23C247.261 103.92 247.016 100.945 247.016 97.305V61.815H238.196V59.715H247.016V45.855C249.956 45.855 252.651 45.61 255.101 45.12C257.621 44.56 259.966 43.685 262.136 42.495Z" fill="#4A4A4A"/>
<path d="M284.636 115.396C282.476 115.396 280.424 114.82 278.48 113.668C276.608 112.516 275.672 111.04 275.672 109.24C275.672 108.304 275.816 107.296 276.104 106.216C276.464 105.136 276.788 104.128 277.076 103.192C279.308 96.352 281.396 89.98 283.34 84.076C285.284 78.1 287.228 72.376 289.172 66.904C291.188 61.36 293.276 55.816 295.436 50.272C297.668 44.728 300.152 38.932 302.888 32.884C300.152 33.46 297.812 34.216 295.868 35.152C293.924 36.016 292.34 36.808 291.116 37.528C289.892 38.176 288.992 38.5 288.416 38.5C288.056 38.5 287.516 38.248 286.796 37.744C286.148 37.24 285.572 36.664 285.068 36.016C284.564 35.368 284.312 34.792 284.312 34.288C286.328 33.424 288.668 32.524 291.332 31.588C294.068 30.652 297.02 29.86 300.188 29.212C303.356 28.564 306.524 28.24 309.692 28.24C313.076 28.24 316.532 28.708 320.06 29.644C323.588 30.508 326.828 31.84 329.78 33.64C332.804 35.368 335.216 37.564 337.016 40.228C338.888 42.82 339.824 45.88 339.824 49.408C339.824 53.224 338.96 56.5 337.232 59.236C335.504 61.972 333.2 64.276 330.32 66.148C327.512 68.02 324.452 69.532 321.14 70.684C317.828 71.836 314.516 72.7 311.204 73.276C307.964 73.852 305.048 74.248 302.456 74.464C299.864 74.68 297.92 74.788 296.624 74.788H295.976C293.96 81.916 291.98 89.044 290.036 96.172C288.092 103.228 286.292 109.636 284.636 115.396ZM296.948 71.44C300.98 71.152 305.012 70.468 309.044 69.388C313.076 68.308 316.712 66.832 319.952 64.96C323.264 63.016 325.892 60.604 327.836 57.724C329.852 54.844 330.86 51.496 330.86 47.68C330.86 44.08 329.888 41.164 327.944 38.932C326.072 36.7 323.624 35.008 320.6 33.856C317.648 32.704 314.516 32.092 311.204 32.02C308.612 37.06 306.128 43.036 303.752 49.948C301.376 56.788 299.108 63.952 296.948 71.44ZM350.199 108.808C347.535 108.808 345.375 108.088 343.719 106.648C342.063 105.28 341.235 103.408 341.235 101.032C341.235 99.016 341.739 96.856 342.747 94.552C343.755 92.248 344.763 89.98 345.771 87.748C346.851 85.516 347.391 83.536 347.391 81.808C347.391 80.152 346.851 78.784 345.771 77.704C344.691 76.552 343.431 75.616 341.991 74.896C340.407 78.856 338.607 82.708 336.591 86.452C334.647 90.124 333.063 93.004 331.839 95.092L330.219 91.96C331.227 90.088 332.559 87.424 334.215 83.968C335.871 80.512 337.455 76.66 338.967 72.412C338.247 71.692 337.887 70.72 337.887 69.496C337.887 67.624 338.463 65.86 339.615 64.204C340.767 62.548 341.883 61.72 342.963 61.72C343.827 61.72 344.439 62.224 344.799 63.232C345.231 64.168 345.447 64.816 345.447 65.176C345.447 65.536 345.267 66.184 344.907 67.12C344.619 68.056 344.403 68.74 344.259 69.172C344.331 69.964 344.943 70.756 346.095 71.548C347.319 72.268 348.687 73.132 350.199 74.14C351.711 75.148 353.043 76.408 354.195 77.92C355.347 79.432 355.923 81.34 355.923 83.644C355.923 85.732 355.455 87.856 354.519 90.016C353.583 92.176 352.647 94.192 351.711 96.064C350.775 97.936 350.307 99.556 350.307 100.924C350.307 101.932 350.559 102.616 351.063 102.976C351.639 103.264 352.287 103.408 353.007 103.408C354.735 103.408 356.535 102.904 358.407 101.896C360.279 100.816 362.115 99.448 363.915 97.792C365.715 96.136 367.299 94.408 368.667 92.608C370.035 90.736 371.079 89.044 371.799 87.532L374.391 89.476C373.023 92.572 371.043 95.632 368.451 98.656C365.859 101.608 362.979 104.056 359.811 106C356.643 107.872 353.439 108.808 350.199 108.808ZM378.093 109.24C374.925 109.24 372.549 108.304 370.965 106.432C369.381 104.56 368.589 102.292 368.589 99.628C368.589 97.972 368.877 95.884 369.453 93.364C370.029 90.844 370.821 88.216 371.829 85.48C372.909 82.672 374.133 80.044 375.501 77.596C376.869 75.148 378.345 73.168 379.929 71.656C381.513 70.072 383.097 69.28 384.681 69.28C385.545 69.28 386.301 69.568 386.949 70.144C387.597 70.648 387.921 71.404 387.921 72.412C387.921 73.348 387.345 74.752 386.193 76.624C385.113 78.496 383.817 80.656 382.305 83.104C380.865 85.552 379.569 88.108 378.417 90.772C377.337 93.364 376.797 95.848 376.797 98.224C376.797 100.528 377.193 102.076 377.985 102.868C378.849 103.588 380.073 103.948 381.657 103.948C384.105 103.948 386.769 102.724 389.649 100.276C392.529 97.828 395.517 93.544 398.613 87.424L400.233 89.152C397.713 95.488 394.509 100.42 390.621 103.948C386.733 107.476 382.557 109.24 378.093 109.24ZM390.837 60.532C389.469 60.532 388.209 60.208 387.057 59.56C385.977 58.84 385.437 57.76 385.437 56.32C385.437 54.592 386.373 53.116 388.245 51.892C390.117 50.668 392.061 50.056 394.077 50.056C395.373 50.056 396.453 50.344 397.317 50.92C398.253 51.496 398.721 52.54 398.721 54.052C398.721 55.564 397.893 57.04 396.237 58.48C394.581 59.848 392.781 60.532 390.837 60.532ZM432.216 108.16C429.408 108.16 427.248 107.44 425.736 106C424.296 104.632 423.576 102.868 423.576 100.708C423.576 99.268 423.828 97.756 424.332 96.172C424.836 94.516 425.34 92.86 425.844 91.204C426.348 89.548 426.6 87.964 426.6 86.452C426.6 84.868 426.204 83.788 425.412 83.212C424.692 82.564 423.828 82.24 422.82 82.24C420.66 82.24 418.428 83.14 416.124 84.94C413.892 86.668 411.696 88.864 409.536 91.528C407.448 94.192 405.468 96.964 403.596 99.844C401.724 102.724 400.104 105.316 398.736 107.62C397.368 107.62 396.072 107.368 394.848 106.864C393.624 106.432 392.58 105.64 391.716 104.488C391.788 104.128 392.22 103.048 393.012 101.248C393.732 99.376 394.56 97.18 395.496 94.66C396.432 92.068 397.26 89.368 397.98 86.56C398.7 83.752 399.06 81.196 399.06 78.892C399.564 78.316 400.32 77.74 401.328 77.164C402.408 76.588 403.524 76.3 404.676 76.3C407.196 76.3 408.456 77.38 408.456 79.54C408.456 80.404 408.276 81.7 407.916 83.428C407.628 85.084 407.196 86.992 406.62 89.152C408.492 86.632 410.544 84.256 412.776 82.024C415.008 79.792 417.312 77.992 419.688 76.624C422.136 75.184 424.584 74.464 427.032 74.464C430.128 74.464 432.396 75.508 433.836 77.596C435.348 79.684 436.104 81.988 436.104 84.508C436.104 86.668 435.744 88.684 435.024 90.556C434.304 92.428 433.584 94.192 432.864 95.848C432.216 97.504 431.892 99.124 431.892 100.708C431.892 101.86 432.144 102.688 432.648 103.192C433.224 103.624 433.836 103.84 434.484 103.84C436.212 103.84 438.012 103.012 439.884 101.356C441.756 99.7 443.52 97.612 445.176 95.092C446.904 92.5 448.416 89.908 449.712 87.316L451.548 88.828C450.036 92.356 448.308 95.596 446.364 98.548C444.492 101.428 442.368 103.768 439.992 105.568C437.688 107.296 435.096 108.16 432.216 108.16ZM456.695 110.968C453.527 110.968 450.971 110.032 449.027 108.16C447.083 106.288 446.111 103.444 446.111 99.628C446.111 96.676 446.651 93.004 447.731 88.612C448.883 84.22 450.323 79.684 452.051 75.004C451.547 74.86 450.935 74.752 450.215 74.68C449.567 74.536 448.919 74.32 448.271 74.032V70.684C449.423 70.828 450.359 70.936 451.079 71.008C451.871 71.08 452.663 71.152 453.455 71.224C454.967 67.408 456.587 63.736 458.315 60.208C460.115 56.608 461.879 53.404 463.607 50.596C465.407 47.788 467.099 45.592 468.683 44.008C470.267 42.352 471.671 41.524 472.895 41.524C473.615 41.524 474.299 41.812 474.947 42.388C475.595 42.892 475.919 43.648 475.919 44.656C475.919 46.096 475.163 48.148 473.651 50.812C472.211 53.476 470.411 56.608 468.251 60.208C466.091 63.736 464.003 67.516 461.987 71.548C462.563 71.548 463.139 71.548 463.715 71.548C464.291 71.548 464.831 71.548 465.335 71.548C468.503 71.548 471.347 71.512 473.867 71.44C476.459 71.296 479.087 71.08 481.751 70.792V74.356C477.791 74.716 474.155 75.004 470.843 75.22C467.531 75.436 464.363 75.58 461.339 75.652C461.123 75.652 460.907 75.652 460.691 75.652C460.475 75.652 460.259 75.652 460.043 75.652C458.531 79.18 457.199 82.816 456.047 86.56C454.967 90.232 454.427 93.832 454.427 97.36C454.427 100.312 454.895 102.4 455.831 103.624C456.767 104.848 458.243 105.46 460.259 105.46C463.859 105.46 467.531 103.84 471.275 100.6C475.091 97.288 478.403 92.824 481.211 87.208L482.723 88.288C480.851 92.536 478.511 96.388 475.703 99.844C472.967 103.3 469.979 106 466.739 107.944C463.499 109.96 460.151 110.968 456.695 110.968Z" fill="#B5603A"/>
<path d="M389 65C389 65 382 59 382 54C382 50 385 48 387.5 48C388.8 48 389.8 48.8 390.3 50C390.8 48.8 391.8 48 393.1 48C395.6 48 398.6 50 398.6 54C398.6 59 390.3 65 390.3 65H389Z" fill="#B5603A"/>
</svg>
