<svg width="200" height="200" viewBox="0 0 200 200" fill="none" xmlns="http://www.w3.org/2000/svg">
<path opacity="0.95" d="M139.94 8C164.241 8.00024 187 28.843 187 62.1797C187 92.9046 165.013 123.358 142.782 146.256C131.695 157.676 120.604 167.159 112.283 173.788C108.124 177.102 104.658 179.7 102.234 181.47C101.023 182.354 100.071 183.032 99.4238 183.487C99.2641 183.6 99.122 183.697 99 183.782C98.878 183.697 98.7359 183.6 98.5762 183.487C97.9288 183.032 96.9774 182.354 95.7656 181.47C93.342 179.7 89.8764 177.102 85.7168 173.788C77.396 167.159 66.3052 157.676 55.2178 146.256C32.9865 123.358 11 92.9046 11 62.1797C11.0001 28.843 33.759 8.00024 58.0596 8C77.2113 8 92.8485 20.1864 98.0518 35.7959L99 38.6426L99.9482 35.7959C105.151 20.1864 120.789 8 139.94 8Z" fill="white" stroke="#D96C6C" stroke-width="2"/>
<path d="M63.5703 75.2628C73.6834 62.7032 86.3247 68.983 95.1736 60.1913C102.758 52.6555 105.287 42.6078 98.966 37.584" stroke="#D96C6C" stroke-width="2.2" stroke-linecap="round" stroke-dasharray="3 2.5"/>
<path d="M137.598 99.7876C124.067 81.443 137.252 66.5363 128.422 51.2871C120.853 38.2165 108.011 31.1085 98.8383 37.8741" stroke="#D96C6C" stroke-width="2.2" stroke-linecap="round" stroke-dasharray="3 2.5"/>
<path d="M58.4805 95.6641C64.2795 95.6641 68.9805 90.9631 68.9805 85.1641C68.9805 79.3651 64.2795 74.6641 58.4805 74.6641C52.6815 74.6641 47.9805 79.3651 47.9805 85.1641C47.9805 90.9631 52.6815 95.6641 58.4805 95.6641Z" fill="#D96C6C"/>
<path d="M144.5 118C150.299 118 155 113.299 155 107.5C155 101.701 150.299 97 144.5 97C138.701 97 134 101.701 134 107.5C134 113.299 138.701 118 144.5 118Z" fill="#D96C6C"/>
<path d="M58.4805 89.6641C60.9658 89.6641 62.9805 87.6493 62.9805 85.1641C62.9805 82.6788 60.9658 80.6641 58.4805 80.6641C55.9952 80.6641 53.9805 82.6788 53.9805 85.1641C53.9805 87.6493 55.9952 89.6641 58.4805 89.6641Z" fill="white"/>
<path d="M144.5 112C146.985 112 149 109.985 149 107.5C149 105.015 146.985 103 144.5 103C142.015 103 140 105.015 140 107.5C140 109.985 142.015 112 144.5 112Z" fill="white"/>
<path opacity="0.3" d="M98.8354 198.5C105.987 198.5 111.784 196.181 111.784 193.32C111.784 190.46 105.987 188.141 98.8354 188.141C91.6841 188.141 85.8867 190.46 85.8867 193.32C85.8867 196.181 91.6841 198.5 98.8354 198.5Z" fill="#C0304A"/>
<path d="M98.8333 148C89.7692 148 82 155.769 82 164.833C82 177.782 98.8333 193.321 98.8333 193.321C98.8333 193.321 115.667 177.782 115.667 164.833C115.667 155.769 107.897 148 98.8333 148Z" fill="#D96C6C"/>
<path d="M98.8308 173.251C102.049 173.251 104.658 170.642 104.658 167.424C104.658 164.205 102.049 161.597 98.8308 161.597C95.6127 161.597 93.0039 164.205 93.0039 167.424C93.0039 170.642 95.6127 173.251 98.8308 173.251Z" fill="white"/>
</svg>
