<svg xmlns="http://www.w3.org/2000/svg" viewBox="0 0 1200 800" role="img" aria-label="Cozy rainy coffee date">
  <defs>
    <linearGradient id="bg" x1="0" x2="1" y1="0" y2="1">
      <stop offset="0" stop-color="#fbcfe8"/>
      <stop offset="0.5" stop-color="#fde68a"/>
      <stop offset="1" stop-color="#bfdbfe"/>
    </linearGradient>
  </defs>
  <rect width="1200" height="800" fill="url(#bg)"/>
  <g opacity=".45" stroke="#1e3a8a" stroke-width="10" stroke-linecap="round">
    <path d="M120 60l-40 78M250 42l-40 78M400 72l-40 78M1030 78l-40 78M910 38l-40 78M780 76l-40 78"/>
  </g>
  <rect x="180" y="470" width="840" height="80" rx="40" fill="#78350f"/>
  <rect x="265" y="295" width="250" height="210" rx="42" fill="#fff7ed"/>
  <path d="M515 340h48c54 0 54 92 0 92h-48" fill="none" stroke="#fff7ed" stroke-width="36"/>
  <rect x="680" y="315" width="210" height="190" rx="36" fill="#fff7ed"/>
  <path d="M711 315c18 62 78 62 96 0" fill="#fb7185"/>
  <path d="M320 255c0-48 64-48 64 0M430 255c0-48 64-48 64 0M735 275c0-40 52-40 52 0" fill="none" stroke="#9f1239" stroke-width="14" stroke-linecap="round"/>
  <path d="M545 610c40-52 87-52 127 0 40-52 87-52 127 0" fill="none" stroke="#be123c" stroke-width="20" stroke-linecap="round"/>
</svg>
