<svg width="200" height="200" viewBox="0 0 200 200" fill="none" xmlns="http://www.w3.org/2000/svg">
  <!-- Background -->
  <rect width="200" height="200" rx="44" fill="#F7F3EF"/>
  
  <!-- Serif H -->
  <g fill="#2E2E2E">
    <!-- Left vertical stroke with serifs -->
    <path d="M 30,40 L 30,38 L 20,38 L 20,40 L 23,40 L 23,160 L 20,160 L 20,162 L 30,162 L 30,160 L 27,160 L 27,102 L 63,102 L 63,160 L 60,160 L 60,162 L 70,162 L 70,160 L 67,160 L 67,40 L 70,40 L 70,38 L 60,38 L 60,40 L 63,40 L 63,98 L 27,98 L 27,40 Z"/>
  </g>
  
  <!-- Cursive P with heart-shaped counter -->
  <g>
    <!-- P stem (cursive flowing line) -->
    <path d="M 95,45 Q 92,50 92,160 Q 92,168 96,168 Q 100,168 102,160 L 102,45"
          stroke="#2E2E2E" stroke-width="7" fill="none" stroke-linecap="round"/>
    
    <!-- P bowl (cursive, heart-shaped counter) -->
    <!-- Outer curve of P bowl -->
    <path d="M 102,45 Q 102,38 108,38 Q 125,38 138,48 Q 148,56 148,70 Q 148,82 142,92 Q 135,100 125,104 Q 115,108 102,108"
          stroke="#2E2E2E" stroke-width="7" fill="none" stroke-linecap="round" stroke-linejoin="round"/>
    
    <!-- Heart inside P counter -->
    <path d="M 120,58 C 120,58 116,54 113,54 C 110,54 108,56 108,59 C 108,62 110,65 115,70 L 120,75 L 125,70 C 130,65 132,62 132,59 C 132,56 130,54 127,54 C 124,54 120,58 120,58 Z"
          fill="#D96C6C"/>
  </g>
</svg>
